<?xml version="1.0" standalone="no"?>
<!DOCTYPE svg PUBLIC "-//W3C//DTD SVG 20010904//EN"
 "http://www.w3.org/TR/2001/REC-SVG-20010904/DTD/svg10.dtd">
<svg version="1.0" xmlns="http://www.w3.org/2000/svg"
 width="512.000000pt" height="512.000000pt" viewBox="0 0 512.000000 512.000000"
 preserveAspectRatio="xMidYMid meet">
<metadata>
Created by potrace 1.14, written by Peter Selinger 2001-2017
</metadata>
<g transform="translate(0.000000,512.000000) scale(0.100000,-0.100000)"
fill="#000000" stroke="none">
<path d="M1904 5085 c-27 -11 -87 -54 -149 -106 -46 -39 -257 -251 -297 -299
-21 -25 -49 -58 -63 -75 -14 -16 -58 -73 -97 -125 -39 -52 -84 -112 -100 -132
-15 -20 -28 -42 -28 -47 0 -6 -4 -11 -8 -11 -4 0 -21 -22 -37 -50 -17 -27 -33
-50 -37 -50 -5 0 -8 -6 -8 -14 0 -8 -4 -16 -9 -18 -5 -1 -11 -9 -13 -17 -2 -7
-13 -25 -26 -39 -12 -14 -22 -31 -22 -38 0 -8 -4 -14 -8 -14 -4 0 -19 -22 -33
-50 -13 -27 -27 -50 -30 -50 -4 0 -12 -13 -19 -30 -7 -16 -16 -30 -21 -30 -5
0 -9 -5 -9 -11 0 -6 -22 -47 -48 -92 -27 -45 -55 -97 -63 -114 -7 -18 -18 -33
-22 -33 -5 0 -5 -4 -2 -10 3 -5 2 -10 -2 -10 -5 0 -17 -20 -27 -45 -11 -25
-22 -45 -27 -45 -4 0 -10 -13 -14 -30 -4 -16 -11 -30 -16 -30 -5 0 -8 -3 -7
-7 1 -5 -14 -43 -35 -87 -20 -43 -40 -89 -43 -102 -3 -13 -10 -24 -14 -24 -5
0 -7 -11 -5 -25 1 -14 -1 -25 -5 -25 -5 0 -16 -28 -35 -90 -1 -3 -4 -12 -8
-20 -7 -19 -67 -210 -72 -230 -2 -8 -13 -46 -25 -84 -12 -38 -23 -76 -25 -85
-2 -9 -11 -41 -20 -71 -9 -30 -17 -62 -19 -70 -11 -45 -28 -107 -33 -120 -3
-8 -7 -26 -8 -40 -1 -14 -4 -26 -5 -27 -4 -5 -7 -22 -9 -49 0 -14 -4 -23 -8
-21 -5 3 -9 -11 -10 -32 -3 -46 -7 -69 -15 -77 -4 -3 -4 -12 -1 -20 3 -8 1
-14 -3 -14 -5 0 -10 -10 -10 -22 -3 -53 -9 -98 -14 -98 -3 0 -5 -16 -5 -35 1
-20 -2 -38 -6 -40 -4 -3 -6 -16 -4 -30 1 -14 -1 -25 -4 -25 -3 0 -8 -24 -9
-53 -4 -62 -10 -122 -12 -122 -2 0 -9 -143 -14 -263 -2 -51 -6 -95 -9 -99 -4
-3 -2 -13 3 -23 5 -10 7 -20 4 -23 -6 -6 -17 -78 -18 -119 -1 -16 -3 -28 -6
-28 -3 0 -5 -12 -5 -27 1 -16 -1 -32 -4 -38 -3 -5 -6 -21 -7 -35 0 -14 -4 -43
-8 -65 -3 -22 -8 -86 -11 -142 -3 -56 -5 -106 -6 -110 -1 -4 -1 -10 0 -13 1
-3 4 -39 6 -81 1 -42 7 -85 13 -95 5 -11 7 -25 5 -31 -3 -7 0 -13 7 -13 6 0 9
-4 6 -9 -8 -12 42 -59 85 -82 38 -19 157 -53 219 -63 143 -22 181 -26 330 -32
127 -5 190 -17 265 -49 39 -17 137 -50 150 -50 6 0 15 -3 20 -6 6 -4 24 -10
40 -14 45 -12 45 -12 48 -15 2 -2 15 -5 57 -13 14 -3 32 -8 40 -11 8 -3 26 -8
40 -10 14 -3 43 -10 65 -15 38 -9 74 -17 120 -26 11 -2 32 -6 48 -9 15 -3 39
-8 55 -11 15 -2 38 -7 52 -10 14 -3 41 -7 60 -10 19 -2 51 -7 70 -10 19 -3 58
-8 85 -10 28 -2 50 -5 50 -5 0 -2 38 -6 115 -14 264 -29 807 -29 1033 -1 17 2
57 6 87 9 30 3 78 10 105 15 28 5 57 9 65 9 15 1 38 5 118 23 23 5 59 12 80
15 20 3 44 10 52 14 8 4 18 8 23 8 19 1 79 16 157 40 47 15 90 27 95 27 6 0
12 2 15 5 7 8 93 34 103 32 4 -1 7 2 7 7 0 8 56 32 80 36 12 2 146 70 160 81
8 7 22 14 30 16 8 2 17 5 20 8 3 3 45 33 95 65 94 63 269 227 301 282 10 18
21 33 25 33 4 0 12 13 19 30 7 16 17 30 22 30 5 0 6 5 3 10 -3 6 -3 10 2 10 9
0 33 48 33 67 0 7 4 13 9 13 8 0 44 99 39 110 -1 3 4 15 10 26 6 12 14 37 17
55 2 19 9 54 14 78 5 24 8 59 7 77 -1 19 1 34 5 34 3 0 4 15 3 33 -1 17 -3 32
-4 32 -1 0 -3 34 -5 75 -3 41 -5 82 -6 90 -2 29 -21 135 -26 150 -10 27 -14
45 -14 63 0 9 -4 17 -7 17 -4 0 -8 9 -9 19 -3 36 -69 175 -122 255 -14 21 -30
46 -36 54 -35 55 -176 196 -237 237 -53 36 -98 64 -128 81 -19 10 -41 25 -48
32 -7 6 -17 12 -22 12 -5 0 -39 13 -75 30 -108 50 -352 120 -415 120 -15 0
-30 3 -33 6 -4 4 -24 8 -46 10 -22 2 -63 6 -93 10 -69 7 -374 8 -458 1 -78 -7
-159 -17 -180 -22 -8 -2 -35 -7 -60 -10 -25 -4 -63 -11 -85 -16 -22 -5 -51
-12 -65 -15 -70 -14 -198 -51 -222 -65 -10 -5 -22 -9 -27 -9 -5 0 -22 -5 -38
-12 -15 -6 -30 -12 -33 -13 -17 -6 -53 -22 -110 -48 -36 -17 -68 -30 -72 -29
-5 1 -8 -3 -8 -9 0 -5 -4 -7 -10 -4 -5 3 -10 2 -10 -3 0 -6 -11 -13 -25 -16
-14 -4 -25 -11 -25 -16 0 -6 -5 -10 -11 -10 -16 0 -143 -85 -169 -112 -11 -12
-20 -19 -20 -15 0 4 -31 -24 -69 -61 -38 -37 -67 -70 -65 -73 2 -4 -2 -9 -10
-12 -8 -3 -29 -28 -47 -56 -32 -49 -48 -57 -47 -23 1 19 -6 51 -21 100 -5 18
-10 34 -11 37 0 3 -2 10 -4 17 -2 7 -6 22 -9 33 -3 11 -17 58 -31 105 -15 47
-29 94 -31 105 -56 225 -63 362 -30 575 3 19 8 51 11 70 8 53 44 169 67 220
75 158 230 239 447 233 109 -3 173 -15 312 -57 271 -82 346 -91 391 -45 13 13
37 51 53 84 36 75 38 137 4 186 -31 46 -119 129 -137 129 -10 0 -11 5 -5 18 5
9 8 32 7 49 -1 28 4 37 37 58 44 29 99 87 145 154 18 25 37 52 43 59 6 6 9 12
6 12 -3 0 3 19 13 41 11 23 17 53 15 68 -3 14 -5 32 -6 39 -1 6 -5 12 -10 12
-4 0 -8 5 -8 11 0 28 -183 228 -302 331 -24 21 -59 52 -78 69 -19 16 -60 49
-90 72 -30 23 -57 45 -60 48 -3 3 -26 20 -52 37 -25 18 -54 39 -62 48 -9 8
-16 12 -16 8 0 -4 -10 1 -22 12 -42 35 -226 132 -298 156 -55 18 -136 20 -176
3z"/>
</g>
</svg>
